<?xml version="1.0" encoding="utf-8"?>
<!-- Generator: Adobe Illustrator 23.0.4, SVG Export Plug-In . SVG Version: 6.00 Build 0)  -->
<svg version="1.1" id="governance_-_by_nicolai_rissmann"
	 xmlns="http://www.w3.org/2000/svg" xmlns:xlink="http://www.w3.org/1999/xlink" x="0px" y="0px" viewBox="0 0 512 512"
	 style="enable-background:new 0 0 512 512;" xml:space="preserve">
<style type="text/css">
	.st0{fill:url(#Background_1_);}
	.st1{fill:url(#Shadow_1_);}
	.st2{fill:url(#Reflection_1_);}
	.st3{fill:url(#Vote_1_);}
</style>
<linearGradient id="Background_1_" gradientUnits="userSpaceOnUse" x1="256" y1="512" x2="256" y2="0" gradientTransform="matrix(1 0 0 -1 0 512)">
	<stop  offset="0" style="stop-color:#E8386D"/>
	<stop  offset="1" style="stop-color:#A53884"/>
</linearGradient>
<rect id="Background" class="st0" width="512" height="512"/>
<radialGradient id="Shadow_1_" cx="256.6" cy="259.5" r="169.5" gradientTransform="matrix(1 0 0 -1 0 512)" gradientUnits="userSpaceOnUse">
	<stop  offset="0.2" style="stop-color:#000000;stop-opacity:0.15"/>
	<stop  offset="1" style="stop-color:#000000;stop-opacity:0"/>
</radialGradient>
<path id="Shadow" class="st1" d="M256.6,83c-45.6,0-86.9,18-117.4,47.2c-32.1,30.8-52.1,74.2-52.1,122.3
	C87.1,346.1,163,422,256.6,422s169.5-75.9,169.5-169.5S350.2,83,256.6,83z M184,357.6l-88.1-88.1L272.4,93l142,142L291.9,357.5
	L184,357.6z"/>
<radialGradient id="Reflection_1_" cx="253.45" cy="153.54" r="148.08" fx="173.6473" fy="153.54" gradientTransform="matrix(0 1 1.66 0 -2.04 105.73)" gradientUnits="userSpaceOnUse">
	<stop  offset="0.37" style="stop-color:#F4B4D2"/>
	<stop  offset="0.38" style="stop-color:#F2B2D0;stop-opacity:0.98"/>
	<stop  offset="0.61" style="stop-color:#D27EB0;stop-opacity:0.57"/>
	<stop  offset="0.8" style="stop-color:#BA5898;stop-opacity:0.26"/>
	<stop  offset="0.93" style="stop-color:#AB418A;stop-opacity:7.000000e-02"/>
	<stop  offset="1" style="stop-color:#A53884;stop-opacity:0"/>
</radialGradient>
<path id="Reflection" class="st2" d="M0,368v144h512V368H0z"/>
<linearGradient id="Vote_1_" gradientUnits="userSpaceOnUse" x1="282.903" y1="417.1481" x2="234.9891" y2="145.4094" gradientTransform="matrix(1 0 0 -1 0 512)">
	<stop  offset="0" style="stop-color:#FFFFFF"/>
	<stop  offset="0.21" style="stop-color:#FFFDFE;stop-opacity:0.99"/>
	<stop  offset="0.38" style="stop-color:#FEF7FA;stop-opacity:0.97"/>
	<stop  offset="0.54" style="stop-color:#FCEDF4;stop-opacity:0.93"/>
	<stop  offset="0.7" style="stop-color:#FADFEC;stop-opacity:0.87"/>
	<stop  offset="0.84" style="stop-color:#F8CDE1;stop-opacity:0.8"/>
	<stop  offset="0.99" style="stop-color:#F4B6D3;stop-opacity:0.71"/>
	<stop  offset="1" style="stop-color:#F4B4D2;stop-opacity:0.7"/>
</linearGradient>
<path id="Vote" class="st3" d="M291.9,357.5L414.4,235l-142-142L95.9,269.5l88.1,88.1h107.9V357.5z M209.8,249.9l29,29.1l64.7-64.7
	c4-4.1,10.4-4.6,15-1.2c4.8,3.8,5.7,10.7,1.9,15.6c-0.3,0.4-0.6,0.7-0.9,1l-72.9,72.9c-4.3,4.3-11.4,4.3-15.7,0l0,0l-37.2-37.2
	c-4.3-4.3-4.4-11.4,0-15.7c0.3-0.3,0.7-0.6,1-0.9C199.4,245.2,205.8,245.7,209.8,249.9z"/>
</svg>
