<svg id="svg" version="1.1" xmlns="http://www.w3.org/2000/svg" xmlns:xlink="http://www.w3.org/1999/xlink" width="40"
     height="45.045045045045043" viewBox="0, 0, 400,450.45045045045043">
  <g id="svgg">
    <path id="path0"
          d="M168.164 63.964 C 165.016 81.306,160.518 107.252,158.169 121.622 L 153.899 147.748 114.787 147.748 L 75.676 147.748 75.676 165.766 L 75.676 183.784 111.109 183.784 L 146.542 183.784 140.748 218.919 L 134.954 254.054 96.306 255.077 L 57.658 256.100 57.658 273.996 L 57.658 291.892 91.892 291.892 C 132.212 291.892,129.545 285.416,117.117 353.153 C 112.208 379.910,108.173 403.018,108.150 404.505 C 108.127 405.991,116.711 407.207,127.227 407.207 L 146.345 407.207 177.943 227.928 C 195.322 129.324,210.408 45.000,211.467 40.541 C 213.287 32.884,212.294 32.432,193.641 32.432 L 173.889 32.432 168.164 63.964 M272.502 38.739 C 269.653 48.409,209.009 394.802,209.009 401.405 C 209.009 405.955,212.846 407.207,226.784 407.207 C 247.529 407.207,245.368 411.373,255.751 351.351 C 259.865 327.568,264.035 304.459,265.018 300.000 C 266.731 292.221,268.337 291.892,304.573 291.892 L 342.342 291.892 342.342 273.874 L 342.342 255.856 308.108 255.856 C 285.488 255.856,273.874 254.503,273.874 251.868 C 273.874 249.674,276.512 233.458,279.737 215.832 L 285.600 183.784 324.782 183.784 L 363.964 183.784 363.964 165.766 L 363.964 147.748 327.765 147.748 L 291.565 147.748 293.697 136.036 C 294.870 129.595,299.535 103.649,304.064 78.378 L 312.299 32.432 293.329 32.432 C 278.373 32.432,273.966 33.767,272.502 38.739 "
          stroke="none" fill="#FFFFFF" fill-rule="evenodd"></path>
  </g>
</svg>
