<svg xmlns="http://www.w3.org/2000/svg" width="22" height="22" viewBox="0 0 22 22"><g transform="translate(-65 -704.9)"><g transform="translate(65 704.9)"><path d="M11,22A11,11,0,1,1,22,11,11.012,11.012,0,0,1,11,22Zm0-7.857a4.719,4.719,0,0,0-4.678,4.125,8.646,8.646,0,0,0,9.355,0,4.722,4.722,0,0,0-4.653-4.126ZM11,2.358A8.643,8.643,0,0,0,4.332,16.5a7.07,7.07,0,0,1,3.245-3.832,4.712,4.712,0,1,1,6.845,0A7.058,7.058,0,0,1,17.669,16.5,8.643,8.643,0,0,0,11,2.358Zm0,4.714a2.357,2.357,0,0,0-.022,4.714H11a2.357,2.357,0,1,0,0-4.714Z" transform="translate(0 0)" fill="#727278"/></g></g></svg>