<svg xmlns="http://www.w3.org/2000/svg" width="22" height="22" viewBox="0 0 22 22"><g transform="translate(-17 -705)"><g transform="translate(17 705)"><g fill="none" stroke="#727278" stroke-width="2"><circle cx="11" cy="11" r="11" stroke="none"/><circle cx="11" cy="11" r="10" fill="none"/></g><path d="M5.836,12.088a1,1,0,0,1-1-1V7.253H1a1,1,0,0,1-1-1V5.836a1,1,0,0,1,1-1H4.835V1a1,1,0,0,1,1-1h.417a1,1,0,0,1,1,1V4.835h3.835a1,1,0,0,1,1,1v.417a1,1,0,0,1-1,1H7.253v3.835a1,1,0,0,1-1,1Z" transform="translate(4.835 4.835)" fill="#727278"/></g></g></svg>