<svg xmlns="http://www.w3.org/2000/svg" width="24" height="24" viewBox="0 0 24 24">
  <g id="Plus" transform="translate(0 0.024)">
    <rect id="Rectangle_29" data-name="Rectangle 29" width="24" height="24" transform="translate(0 -0.024)" fill="none"/>
    <rect id="Rectangle_30" data-name="Rectangle 30" width="24" height="24" transform="translate(0 -0.024)" fill="none"/>
    <circle id="Ellipse_2" data-name="Ellipse 2" cx="10" cy="10" r="10" transform="translate(2 1.976)" fill="#fff" opacity="0.44"/>
    <path id="Path_43" data-name="Path 43" d="M5.5,12a.5.5,0,0,1-.5-.5V7H.5A.5.5,0,0,1,0,6.5v-1A.5.5,0,0,1,.5,5H5V.5A.5.5,0,0,1,5.5,0h1A.5.5,0,0,1,7,.5V5h4.5a.5.5,0,0,1,.5.5v1a.5.5,0,0,1-.5.5H7v4.5a.5.5,0,0,1-.5.5Z" transform="translate(6 6)" fill="#fff"/>
  </g>
</svg>
