<svg xmlns="http://www.w3.org/2000/svg" width="15.933" height="16.161" viewBox="0 0 15.933 16.161">
  <g id="Icon_External_Link" data-name="Icon/External Link" transform="translate(-0.525 -0.314)">
    <path id="External_Link" data-name="External Link" d="M12.675,16.161H2.275A2.287,2.287,0,0,1,.007,14.072L0,13.886V3.486A2.285,2.285,0,0,1,2.088,1.219l.187-.007h5.2a.975.975,0,0,1,.132,1.94l-.132.009h-5.2a.325.325,0,0,0-.317.251l-.008.074v10.4a.324.324,0,0,0,.25.317l.075.008h10.4a.325.325,0,0,0,.317-.25L13,13.886v-5.2a.975.975,0,0,1,1.941-.132l.009.132v5.2a2.285,2.285,0,0,1-2.088,2.267ZM7.624,9.285A.968.968,0,0,1,6.935,9a.979.979,0,0,1-.087-1.279l.069-.079L12.6,1.951H11.282a.975.975,0,0,1-.145-1.94L11.282,0h3.677l.125.01.083.013.126.036.149.069.117.078L15.6.24l.065.06.063.073.057.081.052.095.052.131a.982.982,0,0,1,.044.292v3.68a.975.975,0,0,1-1.939.144l-.01-.144V3.329L8.294,9.018a.971.971,0,0,1-.67.267Z" transform="translate(0.525 0.314)" fill="#fff"/>
  </g>
</svg>
