<svg id="Group_1128" data-name="Group 1128" xmlns="http://www.w3.org/2000/svg" width="23.78" height="23.78" viewBox="0 0 23.78 23.78">
  <g id="Plus" transform="translate(0 0)">
    <rect id="Rectangle_29" data-name="Rectangle 29" width="23.78" height="23.78" fill="none"/>
    <rect id="Rectangle_30" data-name="Rectangle 30" width="23.78" height="23.78" fill="none"/>
    <circle id="Ellipse_2" data-name="Ellipse 2" cx="9.908" cy="9.908" r="9.908" transform="translate(1.982 1.982)" fill="#fff" opacity="0.44"/>
    <path id="Path_43" data-name="Path 43" d="M5.45,11.89a.5.5,0,0,1-.5-.5V6.936H.5a.5.5,0,0,1-.5-.5V5.45a.5.5,0,0,1,.5-.5H4.954V.5a.5.5,0,0,1,.5-.5H6.44a.5.5,0,0,1,.5.5V4.954h4.459a.5.5,0,0,1,.5.5V6.44a.5.5,0,0,1-.5.5H6.936v4.459a.5.5,0,0,1-.5.5Z" transform="translate(5.945 5.945)" fill="#fff"/>
  </g>
</svg>
